<?xml version="1.0" encoding="utf-8"?>

<!-- Uploaded to: SVG Repo, www.svgrepo.com, Generator: SVG Repo Mixer Tools -->
<svg width="800px" height="800px" viewBox="0 0 128 128" xmlns="http://www.w3.org/2000/svg" xmlns:xlink="http://www.w3.org/1999/xlink" aria-hidden="true" role="img" class="iconify iconify--noto" preserveAspectRatio="xMidYMid meet">

<path d="M57.16 8.42l-52 104c-1.94 4.02-.26 8.85 3.75 10.79c1.08.52 2.25.8 3.45.81h104c4.46-.04 8.05-3.69 8.01-8.15a8.123 8.123 0 0 0-.81-3.45l-52-104a8.067 8.067 0 0 0-14.4 0z" fill="#ffcc32">

</path>

<g opacity=".2" fill="#424242">

<path d="M64.36 34.02c4.6 0 8.3 3.7 8 8l-3.4 48c-.38 2.54-2.74 4.3-5.28 3.92a4.646 4.646 0 0 1-3.92-3.92l-3.4-48c-.3-4.3 3.4-8 8-8">

</path>

<path d="M64.36 98.02c3.31 0 6 2.69 6 6s-2.69 6-6 6s-6-2.69-6-6s2.69-6 6-6">

</path>

</g>

<linearGradient id="IconifyId17ecdb2904d178eab21432" gradientUnits="userSpaceOnUse" x1="68" y1="-1808.36" x2="68" y2="-1887.05" gradientTransform="matrix(1 0 0 -1 -3.64 -1776.09)">

<stop offset="0" stop-color="#424242">

</stop>

<stop offset="1" stop-color="#212121">

</stop>

</linearGradient>

<path d="M64.36 34.02c4.6 0 8.3 3.7 8 8l-3.4 48c-.38 2.54-2.74 4.3-5.28 3.92a4.646 4.646 0 0 1-3.92-3.92l-3.4-48c-.3-4.3 3.4-8 8-8z" fill="url(#IconifyId17ecdb2904d178eab21432)">

</path>

<linearGradient id="IconifyId17ecdb2904d178eab21433" gradientUnits="userSpaceOnUse" x1="64.36" y1="-1808.36" x2="64.36" y2="-1887.05" gradientTransform="matrix(1 0 0 -1 0 -1772.11)">

<stop offset="0" stop-color="#424242">

</stop>

<stop offset="1" stop-color="#212121">

</stop>

</linearGradient>

<circle cx="64.36" cy="104.02" r="6" fill="url(#IconifyId17ecdb2904d178eab21433)">

</circle>



</svg>